<?xml version="1.0" standalone="no"?>
<!DOCTYPE svg PUBLIC "-//W3C//DTD SVG 20010904//EN"
 "http://www.w3.org/TR/2001/REC-SVG-20010904/DTD/svg10.dtd">
<svg version="1.0" xmlns="http://www.w3.org/2000/svg"
 width="1200.000000pt" height="1200.000000pt" viewBox="0 0 1200.000000 1200.000000"
 preserveAspectRatio="xMidYMid meet">

<g transform="translate(0.000000,1200.000000) scale(0.100000,-0.100000)"
fill="#000000" stroke="none">
<path d="M2980 6840 l0 -350 50 0 50 0 0 237 c0 130 3 233 8 229 4 -4 21 -58
38 -119 l30 -112 44 0 44 0 30 112 c17 61 34 115 39 119 4 4 7 -99 7 -229 l0
-237 50 0 50 0 0 350 0 350 -63 0 -64 0 -43 -155 c-24 -85 -46 -155 -50 -155
-3 0 -26 70 -50 155 l-45 155 -62 0 -63 0 0 -350z"/>
<path d="M5230 7125 l0 -65 60 0 60 0 0 65 0 65 -60 0 -60 0 0 -65z"/>
<path d="M6470 6841 l0 -351 50 0 50 0 0 139 0 138 103 6 c123 7 171 21 213
64 71 70 67 221 -8 290 -48 45 -94 56 -255 61 l-153 4 0 -351z m310 234 c38
-20 50 -43 50 -97 -1 -82 -42 -108 -169 -108 l-91 0 0 110 0 110 90 0 c62 0
100 -5 120 -15z"/>
<path d="M8100 7140 l0 -50 50 0 50 0 0 -75 0 -76 -47 28 c-56 32 -138 37
-188 10 -197 -103 -166 -441 45 -488 53 -12 101 -3 146 27 43 30 44 30 44 -1
0 -23 3 -25 50 -25 l50 0 0 350 0 350 -100 0 -100 0 0 -50z m74 -263 c26 -17
26 -19 26 -137 0 -118 0 -120 -26 -137 -15 -9 -52 -19 -83 -21 -98 -6 -151 51
-151 160 1 62 23 110 66 139 36 25 127 22 168 -4z"/>
<path d="M8720 7125 l0 -65 60 0 60 0 0 65 0 65 -60 0 -60 0 0 -65z"/>
<path d="M3828 6986 c-119 -33 -183 -121 -182 -251 0 -59 5 -79 29 -124 66
-120 223 -162 357 -95 171 86 168 370 -4 452 -58 27 -141 35 -200 18z m164
-111 c43 -32 61 -73 61 -135 0 -107 -62 -167 -166 -158 -89 7 -137 63 -137
160 0 62 24 108 72 139 42 26 131 23 170 -6z"/>
<path d="M5927 6990 c-56 -14 -90 -34 -129 -78 -45 -49 -62 -100 -62 -177 2
-153 109 -250 276 -248 63 0 88 6 132 27 75 37 80 45 48 84 l-27 32 -49 -25
c-58 -29 -149 -34 -199 -10 -32 15 -77 70 -77 93 0 9 55 12 211 12 l211 0 -7
46 c-16 109 -57 176 -132 216 -54 30 -139 41 -196 28z m143 -105 c28 -15 70
-60 70 -76 0 -5 -68 -9 -151 -9 l-151 0 19 33 c10 17 34 40 53 49 43 22 121
23 160 3z"/>
<path d="M7317 6990 c-56 -14 -90 -34 -129 -78 -45 -49 -62 -100 -62 -177 2
-153 109 -250 276 -248 63 0 88 6 132 27 75 37 80 45 48 84 l-27 32 -49 -25
c-58 -29 -149 -34 -199 -10 -32 15 -77 70 -77 93 0 9 55 12 211 12 l211 0 -7
46 c-16 109 -57 176 -132 216 -54 30 -139 41 -196 28z m143 -105 c28 -15 70
-60 70 -76 0 -5 -68 -9 -151 -9 l-151 0 19 33 c10 17 34 40 53 49 43 22 121
23 160 3z"/>
<path d="M9399 6990 c-25 -4 -68 -18 -97 -30 l-51 -22 20 -40 c15 -30 24 -38
37 -33 89 37 192 46 242 20 17 -9 30 -19 30 -23 0 -4 3 -16 6 -28 5 -20 1 -21
-88 -27 -109 -8 -153 -19 -198 -50 -54 -36 -75 -72 -75 -127 0 -89 63 -142
168 -143 70 0 128 20 170 60 l27 27 0 -42 0 -42 51 0 50 0 -3 198 c-3 190 -4
198 -27 231 -42 58 -156 89 -262 71z m188 -286 c11 -28 -24 -82 -66 -104 -44
-22 -129 -27 -162 -9 -50 26 -39 89 20 113 52 22 199 22 208 0z"/>
<path d="M4360 6981 c0 -4 40 -116 89 -247 l88 -239 63 0 63 0 88 235 c48 129
88 241 88 248 1 8 -16 12 -52 12 l-52 0 -65 -189 c-36 -104 -67 -188 -70 -186
-4 2 -35 87 -70 189 l-65 186 -52 0 c-29 0 -53 -4 -53 -9z"/>
<path d="M5130 6940 l0 -50 55 0 55 0 0 -150 0 -150 -55 0 -55 0 0 -50 0 -50
165 0 165 0 0 50 0 50 -60 0 -60 0 0 200 0 200 -105 0 -105 0 0 -50z"/>
<path d="M8620 6940 l0 -50 55 0 55 0 0 -150 0 -150 -55 0 -55 0 0 -50 0 -50
165 0 165 0 0 50 0 50 -60 0 -60 0 0 200 0 200 -105 0 -105 0 0 -50z"/>
<path d="M2012 6824 l-22 -15 0 -843 c0 -804 1 -844 18 -859 24 -22 45 -21 65
1 16 17 17 91 17 860 l0 841 -22 15 c-12 9 -25 16 -28 16 -3 0 -16 -7 -28 -16z"/>
<path d="M1577 6608 c-16 -12 -17 -60 -15 -648 l3 -635 29 -10 c24 -8 31 -6
47 14 18 22 19 49 19 637 0 601 0 614 -20 634 -23 23 -39 25 -63 8z"/>
<path d="M2228 6609 c-17 -9 -18 -51 -18 -642 0 -479 3 -636 12 -645 19 -19
55 -14 72 10 14 20 16 97 16 635 0 600 0 613 -20 633 -22 22 -37 24 -62 9z"/>
<path d="M1790 6380 c-19 -19 -20 -33 -20 -413 0 -425 2 -437 54 -437 46 0 46
0 46 437 0 397 -1 413 -19 423 -28 14 -38 13 -61 -10z"/>
<path d="M2428 6389 c-17 -9 -18 -40 -18 -422 0 -308 3 -416 12 -425 18 -18
53 -15 71 6 15 17 17 60 17 415 0 384 -1 398 -20 417 -22 22 -37 24 -62 9z"/>
<path d="M1357 6162 c-15 -16 -17 -45 -17 -196 0 -103 4 -185 10 -197 12 -21
41 -25 71 -9 18 10 19 23 19 200 0 158 -3 191 -16 204 -21 21 -47 20 -67 -2z"/>
<path d="M980 6000 c-24 -24 -25 -38 -4 -68 13 -19 24 -22 93 -22 84 0 101 8
101 51 0 46 -23 59 -101 59 -56 0 -73 -4 -89 -20z"/>
<path d="M2666 6004 c-19 -18 -21 -65 -4 -82 9 -9 948 -12 4164 -12 3762 0
4154 1 4168 16 21 21 20 57 -2 77 -17 16 -321 17 -4165 17 -3755 0 -4147 -1
-4161 -16z"/>
</g>
</svg>
