<svg xmlns="http://www.w3.org/2000/svg" version="1.1" xmlns:xlink="http://www.w3.org/1999/xlink" xmlns:svgjs="http://svgjs.dev/svgjs" width="1000" height="750" viewBox="0 0 1000 750"><rect width="1000" height="750" fill="#ffffff"></rect><g transform="matrix(0.834,0,0,0.834,82.49454545454546,252.19137573609567)"><svg viewBox="0 0 396 117" data-background-color="#ffffff" preserveAspectRatio="xMidYMid meet" height="295" width="1000" xmlns="http://www.w3.org/2000/svg" xmlns:xlink="http://www.w3.org/1999/xlink"><g id="tight-bounds" transform="matrix(1,0,0,1,0.2400000000000091,-0.09814234493023832)"><svg viewBox="0 0 395.52 117.19628468986048" height="117.19628468986048" width="395.52"><g><svg viewBox="0 0 395.52 117.19628468986048" height="117.19628468986048" width="395.52"><g transform="matrix(1,0,0,1,0,72.43200562009304)"><svg viewBox="0 0 395.52 44.76427906976744" height="44.76427906976744" width="395.52"><g><svg viewBox="0 0 395.52 44.76427906976744" height="44.76427906976744" width="395.52"><g><svg viewBox="0 0 395.52 44.76427906976744" height="44.76427906976744" width="395.52"><g transform="matrix(1,0,0,1,0,0)"><svg width="395.52" viewBox="1.5 -35.75 322.4800109863281 36.5" height="44.76427906976744" data-palette-color="#ff0000"><path d="M22.25 0.5L7-28.75 7-2.25 11-0.75 11 0 1.5 0 1.5-0.75 5.5-2.25 5.5-33.5 2.5-34.25 2.5-35 8.75-35Q11.35-35 12.88-33.93 14.4-32.85 15.5-30.75L15.5-30.75 26.4-9.9 34.75-30.75Q35.6-32.95 37.05-33.98 38.5-35 41.5-35L41.5-35 46.75-35 46.75-34.25 43.75-33.5 43.75-1.5 46.75-0.75 46.75 0 32.5 0 32.5-0.75 35.5-1.5 35.5-28.75 23.75 0.5 22.25 0.5ZM67.75 0.75Q62.85 0.75 59.17-1.38 55.5-3.5 53.5-7.6 51.5-11.7 51.5-17.5L51.5-17.5Q51.5-23.3 53.5-27.4 55.5-31.5 59.17-33.63 62.85-35.75 67.75-35.75L67.75-35.75Q72.65-35.75 76.32-33.63 80-31.5 82-27.4 84-23.3 84-17.5L84-17.5Q84-11.7 82-7.6 80-3.5 76.32-1.38 72.65 0.75 67.75 0.75L67.75 0.75ZM67.75-0.25Q69.7-0.25 71.37-1.9 73.05-3.55 74.15-7.4 75.25-11.25 75.25-17.5L75.25-17.5Q75.25-23.75 74.15-27.6 73.05-31.45 71.37-33.1 69.7-34.75 67.75-34.75L67.75-34.75Q65.8-34.75 64.12-33.1 62.45-31.45 61.35-27.6 60.25-23.75 60.25-17.5L60.25-17.5Q60.25-11.25 61.35-7.4 62.45-3.55 64.12-1.9 65.8-0.25 67.75-0.25L67.75-0.25ZM101.75 0.5L86.75-33.5 84.25-34.25 84.25-35 90.25-35Q92.84-35 94.5-33.83 96.15-32.65 97-30.75L97-30.75 105.84-10.6 114-32.75 110.25-34.25 110.25-35 119.5-35 119.5-34.25 115.5-32.75 103.25 0.5 101.75 0.5ZM135.24 0L120.99 0 120.99-0.75 123.99-1.5 123.99-33.5 120.99-34.25 120.99-35 135.24-35 135.24-34.25 132.24-33.5 132.24-1.5 135.24-0.75 135.24 0ZM139.74 0L139.74-0.75 142.74-1.5 142.74-33.5 139.74-34.25 139.74-35 166.49-35 166.49-26 164.99-26Q164.04-26.75 163.34-27.9L163.34-27.9Q161.74-30.6 161.74-33.75L161.74-33.75 150.99-33.75 150.99-18 156.74-18Q157.09-19.9 158.04-21.55L158.04-21.55Q158.44-22.3 158.99-23L158.99-23 160.49-23 160.49-11.75 158.99-11.75Q158.44-12.45 158.04-13.2L158.04-13.2Q157.09-14.85 156.74-16.75L156.74-16.75 150.99-16.75 150.99-1.25 162.74-1.25Q162.74-4.4 164.34-7.1L164.34-7.1Q165.04-8.25 165.99-9L165.99-9 167.49-9 167.49 0 139.74 0ZM171.99 0L171.99-0.75 174.99-1.5 174.99-33.5 171.99-34.25 171.99-35 185.99-35Q194.29-35 197.89-32.27 201.49-29.55 201.49-24.25L201.49-24.25Q201.49-18.95 197.89-16.23 194.29-13.5 185.99-13.5L185.99-13.5 183.24-13.5 183.24-1.5 186.24-0.75 186.24 0 171.99 0ZM183.24-14.75L185.99-14.75Q189.14-14.75 191.06-17.15 192.99-19.55 192.99-24.25L192.99-24.25Q192.99-28.9 191.06-31.33 189.14-33.75 185.99-33.75L185.99-33.75 183.24-33.75 183.24-14.75ZM205.74 0L205.74-0.75 208.74-1.5 208.74-33.5 205.74-34.25 205.74-35 232.49-35 232.49-26 230.99-26Q230.04-26.75 229.34-27.9L229.34-27.9Q227.74-30.6 227.74-33.75L227.74-33.75 216.99-33.75 216.99-18 222.74-18Q223.09-19.9 224.04-21.55L224.04-21.55Q224.44-22.3 224.99-23L224.99-23 226.49-23 226.49-11.75 224.99-11.75Q224.44-12.45 224.04-13.2L224.04-13.2Q223.09-14.85 222.74-16.75L222.74-16.75 216.99-16.75 216.99-1.25 228.74-1.25Q228.74-4.4 230.34-7.1L230.34-7.1Q231.04-8.25 231.99-9L231.99-9 233.49-9 233.49 0 205.74 0ZM237.98 0L237.98-0.75 240.98-1.5 240.98-33.5 237.98-34.25 237.98-35 250.73-35Q259.68-35 264.46-30.4 269.23-25.8 269.23-17.5L269.23-17.5Q269.23-9.2 264.46-4.6 259.68 0 250.73 0L250.73 0 237.98 0ZM249.23-1.25L250.73-1.25Q255.38-1.25 257.93-5.03 260.48-8.8 260.48-17.5L260.48-17.5Q260.48-26.2 257.93-29.98 255.38-33.75 250.73-33.75L250.73-33.75 249.23-33.75 249.23-1.25ZM287.98 0L273.73 0 273.73-0.75 276.73-1.5 276.73-33.5 273.73-34.25 273.73-35 287.98-35 287.98-34.25 284.98-33.5 284.98-1.5 287.98-0.75 287.98 0ZM287.98 0L287.98-0.75 291.98-2.25 305.73-35.5 307.23-35.5 321.48-1.5 323.98-0.75 323.98 0 317.98 0Q315.38 0 313.73-1.18 312.08-2.35 311.28-4.25L311.28-4.25 308.73-10.25 296.78-10.25 293.48-2.25 297.23-0.75 297.23 0 287.98 0ZM302.73-24.65L297.28-11.5 308.23-11.5 302.73-24.65Z" opacity="1" transform="matrix(1,0,0,1,0,0)" fill="#ff0000" class="undefined-text-0" data-fill-palette-color="primary" id="text-0"></path></svg></g></svg></g></svg></g></svg></g><g transform="matrix(1,0,0,1,160.6469999344958,0)"><svg viewBox="0 0 74.22600013100836 61.864233674418614" height="61.864233674418614" width="74.22600013100836"><g><svg version="1.1" xmlns="http://www.w3.org/2000/svg" xmlns:xlink="http://www.w3.org/1999/xlink" x="8" y="0" viewBox="0 0 94.11900329589844 100" enable-background="new 0 0 94.119 100" xml:space="preserve" width="58.22600013100836" height="61.864233674418614" class="icon-icon-0" data-fill-palette-color="accent" id="icon-0"><polygon points="82.354,0 69.118,3.861 75.552,21.324 88.235,17.647 " fill="#ed2647" data-fill-palette-color="accent"></polygon><polygon points="61.031,6.067 43.75,11.029 44.118,11.765 47.427,20.772 50.368,28.493 67.648,23.53 " fill="#ed2647" data-fill-palette-color="accent"></polygon><polygon points="35.846,13.235 20.589,17.647 27.207,35.111 42.464,30.699 38.604,20.772 " fill="#ed2647" data-fill-palette-color="accent"></polygon><polygon points="12.684,19.853 0,23.53 5.883,41.177 19.118,37.317 " fill="#ed2647" data-fill-palette-color="accent"></polygon><path d="M5.883 41.177v52.941c0 3.259 2.623 5.882 5.882 5.882h76.47c3.259 0 5.884-2.623 5.884-5.882V41.177H5.883zM82.354 70.588H17.647V52.942h64.706V70.588z" fill="#ed2647" data-fill-palette-color="accent"></path></svg></g></svg></g><g><rect width="160.6469999344958" height="4.036888883247628" y="56.82734479117099" x="234.87300006550416" fill="#ed2647" data-fill-palette-color="accent"></rect><rect width="160.6469999344958" height="4.036888883247628" y="56.82734479117099" x="0" fill="#ed2647" data-fill-palette-color="accent"></rect><rect width="160.6469999344958" height="4.036888883247628" y="48.75356702467573" x="234.87300006550416" fill="#ed2647" data-fill-palette-color="accent"></rect><rect width="160.6469999344958" height="4.036888883247628" y="48.75356702467573" x="0" fill="#ed2647" data-fill-palette-color="accent"></rect></g></svg></g><defs></defs></svg><rect width="395.52" height="117.19628468986048" fill="none" stroke="none" visibility="hidden"></rect></g></svg></g></svg>